<svg xmlns="http://www.w3.org/2000/svg" viewBox="0 0 323.6 304.2"><path d="M237.7 87l-2.1 2.1L101.3 224l-5 5c6.7 7.8 12 16.8 15.7 26.6h112.5c11.2 0 21.4-4.7 28.7-12.2 7.1-7.2 11.5-17.1 11.5-28V102.7c-10-3.6-19.1-8.9-27-15.7zm19.9 128.5c0 9.3-3.9 17.7-10.1 23.7-5.9 5.8-14 9.4-23 9.4H116.8c-2.9-6.8-6.7-13.2-11.1-19.1L238.2 96.4c6 4.4 12.5 8.2 19.4 11.1v108zM202 22.5h53.7C257 42.2 272.9 58 292.6 59v14c-22.6-.9-41.6-15.9-48.3-36.5H99.6c-14.8 0-28.1 6-37.9 15.6-10 9.8-16.2 23.5-16.2 38.6V214c22.9 5.1 41.9 20.8 51.4 41.7H81.1c-10-16.9-28-28.5-48.8-29.4h-.8V90.7c0-18.5 7.5-35.4 19.7-47.7l.7-.7.1-.1C64.3 30 81.2 22.5 99.7 22.5H202zm111.6 83.4v109.6c0 24.4-9.9 46.5-25.8 62.6-16.1 16.4-38.6 26.5-63.3 26.5H115.6c1.2-5.8 1.9-11.8 2-18h7c0 3.7-.3 7.4-.7 11h100.7c22.5 0 42.9-9.1 57.7-23.9 15.1-14.9 24.4-35.5 24.4-58.3V114.3c-3.6.5-7.3.7-11 .7v-7c6.1-.1 12.1-.8 17.9-2.1zM122.2 283.7H68.4c-1.3-19.7-17.2-35.4-36.9-36.4v-14c22.6.8 41.6 15.9 48.4 36.4h144.7c14.7 0 28.1-6 37.8-15.6 10-9.8 16.3-23.5 16.3-38.6V92.2c-22.9-5.1-41.9-20.8-51.4-41.7H243c10 16.9 28 28.5 48.8 29.4h.8v135.6c0 18.6-7.6 35.4-19.7 47.7-.2.2-.4.4-.7.6l-.1.1c-12.3 12.1-29.1 19.7-47.7 19.7H122.2zm89.9-233.2H99.6c-11.3 0-21.4 4.7-28.7 12.2-7.1 7.2-11.4 17.1-11.4 27.9v112.9c9.9 3.6 19 9 26.9 15.7l2.1-2.1 134.3-135 5-5c-6.7-7.8-12-16.8-15.7-26.6zM85.9 209.8c-6-4.4-12.5-8.2-19.4-11.1v-108c0-9.3 3.9-17.7 10.1-23.7 5.9-5.8 14.1-9.4 23-9.4h107.7c2.9 6.8 6.7 13.2 11.1 19.1L85.9 209.8zm-68.4-17.9c3.6-.5 7.3-.7 11-.7v7c-6.2.1-12.2.8-18 2.1V90.7c0-24.4 9.9-46.5 25.8-62.6C52.4 11.7 74.9 1.5 99.6 1.5h108.9c-1.2 5.8-1.9 11.8-2 18h-7c0-3.7.3-7.4.7-11H99.6c-22.5 0-42.9 9.1-57.7 23.9-15 14.9-24.4 35.5-24.4 58.3v101.2z" fill="#fff"/></svg>