<svg xmlns="http://www.w3.org/2000/svg" viewBox="0 0 323.6 304.2"><path d="M124.4 45.7h-9.9l15.4-15.4h25l-7 7h-15.1l-8.4 8.4zm151.3-6.3v86.1l-70.6 70.6-70.6 70.6H48.4v-86.1L119 110l70.6-70.6h86.1zm-7 83.3V46.5h-76.2L124 115l-68.5 68.5v76.2h76.2l68.5-68.5 68.5-68.5zm.7 68.1v9.9l15.4-15.4v-25l-7 7v15.1l-8.4 8.4zm-3 66.7v-78.7l-7 7v64.7h-64.7l-7 7h78.7zm-75.1 11.4h-15.1l-7 7h25l15.4-15.4h-9.9l-8.4 8.4zm54.1-32.4h-41l-44.3 44.3-14 14H20.4V169l14-14 44.3-44.3v-41h41L164 25.4l14-14h125.7v125.7l-14 14-44.3 44.3v41.1zm-14-14v-32.8l58.3-58.3V25.5H183.8l-58.3 58.3H92.7v32.8l-58.3 58.3v105.9h105.9l58.3-58.3h32.8zM64.7 55.7h64.7l7-7H57.7v78.7l7-7V55.7zm-10 59.7v-9.9l-15.4 15.4v25l7-7v-15.1l8.4-8.4z" fill="#fff"/></svg>