<?xml version="1.0" encoding="utf-8"?>
<!-- Generator: Adobe Illustrator 24.1.1, SVG Export Plug-In . SVG Version: 6.00 Build 0)  -->
<svg version="1.1" id="Layer_1" xmlns="http://www.w3.org/2000/svg" xmlns:xlink="http://www.w3.org/1999/xlink" x="0px" y="0px"
	 viewBox="0 0 297.6000061 297.6000061" style="enable-background:new 0 0 297.6000061 297.6000061;" xml:space="preserve">
<style type="text/css">
	.st0{fill:#FF4654;}
	.st1{fill:#111111;}
</style>
<path class="st0" d="M0,0h297.6000061v297.6000061H0V0z"/>
<g>
	<g>
		<path class="st1" d="M248.8500061,145.6802826V67.8802719c0-1.1999969-1.5-1.6999969-2.2999878-0.8000031l-85,106.2000046
			c-0.6999969,0.8000031-0.1000061,2.1000061,1,2.1000061h61.3999939c1.6999969,0,3.1999969-0.8000031,4.1999969-2.1000061
			l19.4000092-24.1999969C248.3500061,148.1802826,248.8500061,146.9802856,248.8500061,145.6802826L248.8500061,145.6802826z
			 M50.0500031,149.1802826l63.8000031,79.7999878c1,1.2999878,2.6000061,2,4.3000031,2h61.4000092
			c1.1000061,0,1.6999969-1.2000122,1-2L51.0500031,67.180275C50.25,66.2802811,48.75,66.7802811,48.75,67.980278v77.8000107
			C48.8500061,146.9802856,49.2500076,148.1802826,50.0500031,149.1802826L50.0500031,149.1802826z"/>
	</g>
</g>
</svg>
